Original title: Topsy-Turvy
Released: 1999
Country: United Kingdom
Studio: Goldwyn Films, Newmarket Capital Group LLC, The Greenlight Fund, Thin Man Films
Genre: drama, comedy, biography, music
Director: Mike Leigh / Mike Leigh
Scenario: Mike Leigh / Mike Leigh
Producer: Simon Channing-Williams, Georgina Lowe
Operator: Dick Pope
Composer: Carl Davis, Jacques Offenbach, Arthur Sullivan
Artist: Eve Stewart, Helen Scott, Lindy Hemming
Installation: Robin Seyls
Cast: Korduner Allan (Sir Arthur Sullivan), Dexter Fletcher (Louis), Suki Smith (Clothilde), Roger Heathcott (Banton), Wendy Nottinhem (Helen Lenoir), Stephen Bednarchik (Frank Cellier), Geoffrey Hutchings (Armourer), Timothy Spall (Richard Temple), Francis Lee (Butt), William Ninan (Cook), Adam Searle (Shrimp), Martin Savage (George Grossmith)

About movie: 1884, London. Funny Opera Gilbert, author of the libretto and composer Sullivan enjoyed a huge success. But the new job fell through. In a joint work of two geniuses of a crisis. Break out of it helps to visit Gilbert and his wife, a Japanese exhibition in London. Funny gags, just captured the era details, brilliant humor - Mike Lee is resting on the glory and offers to join. ...


File info:
Quality: BDRip 720p
Duration: 02:40:57
(Translation): 1) Two-Russian voice-over, and 2) the original English track
Subtitles: Russian, English (2 species)
Format: MKV

Video: AVC High@L4.1, ReFrames: 5; 720p; 1280x720 (16:9); 4324 Kbps; 23.976 fps; 0.196 bpp
Audio 1: AC3; 192 Kbps; 2 ch; 48 000 Hz; CBR; 16-bit
Audio 2: DTS; 1509 Kbps; 6 ch; 48 000 Hz; CBR; 24-bit



Format / Info: Advanced Video Codec
Format profile: High@L4.1
Format settings, CABAC: Yes
Format settings, ReFrames: 5 frames
Format settings, GOP: M = 1, N = 59
Codec ID: V_MPEG4/ISO/AVC
Duration: 2h 40mn
Bit rate: 4324 Kbps
Width: 1280 pixels
Height: 720 pixels
Display aspect ratio: 16:9
Frame rate: 23.976 fps


Audio # 1
ID: 2
Format: AC-3
Format / Info: Audio Coding 3
Mode extension: CM (complete main)
Codec ID: A_AC3
Duration: 2h 40mn
Bit rate mode: Constant
Bit rate: 192 Kbps
Channel (s): 2 channels
Channel positions: Front: L R
Sampling rate: 48.0 KHz
Bit depth: 16 bits
Compression mode: Lossy
Stream size: 221 MiB (3%)
Title: 2VO
Language: Russian

Audio # 2
ID: 3
Format: DTS
Format / Info: Digital Theater Systems
Codec ID: A_DTS
Duration: 2h 40mn
Bit rate mode: Constant
Bit rate: 1510 Kbps
Channel (s): 6 channels
Channel positions: Front: L C R, Side: L R, LFE
Sampling rate: 48.0 KHz
Bit depth: 24 bits
Compression mode: Lossy
Delay relative to video: 11ms
Stream size: 1.70 GiB (25%)
Title: Original
Language: English

Text # 1
ID: 4
Format: VobSub
Codec ID: S_VOBSUB
Codec ID / Info: The same subtitle format used on DVDs
Language: Russian

Text # 2
ID: 5
Format: VobSub
Codec ID: S_VOBSUB
Codec ID / Info: The same subtitle format used on DVDs
Language: English

Text # 3
ID: 6
Format: UTF-8
Codec ID: S_TEXT/UTF8
Codec ID / Info: UTF-8 Plain Text
Language: English
